<svg version="1.1" viewBox="0.0 0.0 500.0 500.0" fill="none" stroke="none" stroke-linecap="square" stroke-miterlimit="10" xmlns:xlink="http://www.w3.org/1999/xlink" xmlns="http://www.w3.org/2000/svg"><clipPath id="g61f27a95b0_0_0.0"><path d="m0 0l500.0 0l0 500.0l-500.0 0l0 -500.0z" clip-rule="nonzero"/></clipPath><g clip-path="url(#g61f27a95b0_0_0.0)"><path fill="#000000" fill-opacity="0.0" d="m0 0l500.0 0l0 500.0l-500.0 0z" fill-rule="evenodd"/><path fill="#000000" fill-opacity="0.0" d="m217.79538 94.99752l0 0c0 -28.657928 23.231842 -51.889763 51.88977 -51.889763l0 0c13.762024 0 26.960388 5.466938 36.69159 15.198158c9.731232 9.731216 15.198181 22.92958 15.198181 36.691605l0 0c0 28.65792 -23.231842 51.889763 -51.88977 51.889763l0 0c-28.657928 0 -51.88977 -23.231842 -51.88977 -51.889763z" fill-rule="evenodd"/><path stroke="#ffffff" stroke-width="8.0" stroke-linejoin="round" stroke-linecap="butt" d="m217.79538 94.99752l0 0c0 -28.657928 23.231842 -51.889763 51.88977 -51.889763l0 0c13.762024 0 26.960388 5.466938 36.69159 15.198158c9.731232 9.731216 15.198181 22.92958 15.198181 36.691605l0 0c0 28.65792 -23.231842 51.889763 -51.88977 51.889763l0 0c-28.657928 0 -51.88977 -23.231842 -51.88977 -51.889763z" fill-rule="evenodd"/><path fill="#000000" fill-opacity="0.0" d="m289.8588 216.86525l0 0c0 -44.095795 35.746735 -79.842514 79.84253 -79.842514l0 0c21.175537 0 41.483795 8.411957 56.457184 23.38533c14.973389 14.973373 23.385345 35.28163 23.385345 56.457184l0 0c0 44.09581 -35.746735 79.842514 -79.84253 79.842514l0 0c-44.095795 0 -79.84253 -35.746704 -79.84253 -79.842514z" fill-rule="evenodd"/><path stroke="#ffffff" stroke-width="12.0" stroke-linejoin="round" stroke-linecap="butt" d="m289.8588 216.86525l0 0c0 -44.095795 35.746735 -79.842514 79.84253 -79.842514l0 0c21.175537 0 41.483795 8.411957 56.457184 23.38533c14.973389 14.973373 23.385345 35.28163 23.385345 56.457184l0 0c0 44.09581 -35.746735 79.842514 -79.84253 79.842514l0 0c-44.095795 0 -79.84253 -35.746704 -79.84253 -79.842514z" fill-rule="evenodd"/><path fill="#000000" fill-opacity="0.0" d="m66.99984 335.70612l0 0c0 -59.92508 48.578865 -108.50395 108.503944 -108.50395l0 0c28.777023 0 56.375427 11.431625 76.72386 31.780075c20.348434 20.34842 31.780075 47.94684 31.780075 76.72388l0 0c0 59.92505 -48.578873 108.50394 -108.50394 108.50394l0 0c-59.92508 0 -108.503944 -48.578888 -108.503944 -108.50394z" fill-rule="evenodd"/><path stroke="#ffffff" stroke-width="16.0" stroke-linejoin="round" stroke-linecap="butt" d="m66.99984 335.70612l0 0c0 -59.92508 48.578865 -108.50395 108.503944 -108.50395l0 0c28.777023 0 56.375427 11.431625 76.72386 31.780075c20.348434 20.34842 31.780075 47.94684 31.780075 76.72388l0 0c0 59.92505 -48.578873 108.50394 -108.50394 108.50394l0 0c-59.92508 0 -108.503944 -48.578888 -108.503944 -108.50394z" fill-rule="evenodd"/></g></svg>