<svg version="1.1" viewBox="0.0 0.0 1400.0 300.0" fill="none" stroke="none" stroke-linecap="square" stroke-miterlimit="10" xmlns:xlink="http://www.w3.org/1999/xlink" xmlns="http://www.w3.org/2000/svg"><clipPath id="g4b13e03e8a_0_8.0"><path d="m0 0l1400.0 0l0 300.0l-1400.0 0l0 -300.0z" clip-rule="nonzero"/></clipPath><g clip-path="url(#g4b13e03e8a_0_8.0)"><path fill="#000000" fill-opacity="0.0" d="m0 0l1400.0 0l0 300.0l-1400.0 0z" fill-rule="evenodd"/><path fill="#000000" fill-opacity="0.0" d="m133.65694 73.06234l0 0c0 -15.086781 12.231628 -27.317032 27.320084 -27.317032l0 0c7.245743 0 14.194717 2.8780365 19.318222 8.000973c5.12352 5.1229362 8.001877 12.071133 8.001877 19.31606l0 0c0 15.086777 -12.231628 27.317024 -27.320099 27.317024l0 0c-15.088455 0 -27.320084 -12.2302475 -27.320084 -27.317024z" fill-rule="evenodd"/><path stroke="#3d85c6" stroke-width="8.0" stroke-linejoin="round" stroke-linecap="butt" d="m133.65694 73.06234l0 0c0 -15.086781 12.231628 -27.317032 27.320084 -27.317032l0 0c7.245743 0 14.194717 2.8780365 19.318222 8.000973c5.12352 5.1229362 8.001877 12.071133 8.001877 19.31606l0 0c0 15.086777 -12.231628 27.317024 -27.320099 27.317024l0 0c-15.088455 0 -27.320084 -12.2302475 -27.320084 -27.317024z" fill-rule="evenodd"/><path fill="#000000" fill-opacity="0.0" d="m171.5881 137.186l0 0c0 -23.227737 18.857086 -42.05754 42.11847 -42.05754l0 0c11.170517 0 21.883514 4.431053 29.782257 12.318367c7.8987427 7.8873215 12.336212 18.584824 12.336212 29.739174l0 0c0 23.227737 -18.85707 42.05754 -42.11847 42.05754l0 0c-23.261383 0 -42.11847 -18.829803 -42.11847 -42.05754z" fill-rule="evenodd"/><path stroke="#3d85c6" stroke-width="8.0" stroke-linejoin="round" stroke-linecap="butt" d="m171.5881 137.186l0 0c0 -23.227737 18.857086 -42.05754 42.11847 -42.05754l0 0c11.170517 0 21.883514 4.431053 29.782257 12.318367c7.8987427 7.8873215 12.336212 18.584824 12.336212 29.739174l0 0c0 23.227737 -18.85707 42.05754 -42.11847 42.05754l0 0c-23.261383 0 -42.11847 -18.829803 -42.11847 -42.05754z" fill-rule="evenodd"/><path fill="#000000" fill-opacity="0.0" d="m54.284466 199.57025l0 0c0 -31.492874 25.551754 -57.02289 57.071438 -57.02289l0 0c15.1362915 0 29.652626 6.0077515 40.3556 16.701614c10.702972 10.693863 16.715836 25.19786 16.715836 40.321274l0 0c0 31.492874 -25.551743 57.02289 -57.071434 57.02289l0 0c-31.519684 0 -57.071438 -25.530014 -57.071438 -57.02289z" fill-rule="evenodd"/><path stroke="#3d85c6" stroke-width="12.0" stroke-linejoin="round" stroke-linecap="butt" d="m54.284466 199.57025l0 0c0 -31.492874 25.551754 -57.02289 57.071438 -57.02289l0 0c15.1362915 0 29.652626 6.0077515 40.3556 16.701614c10.702972 10.693863 16.715836 25.19786 16.715836 40.321274l0 0c0 31.492874 -25.551743 57.02289 -57.071434 57.02289l0 0c-31.519684 0 -57.071438 -25.530014 -57.071438 -57.02289z" fill-rule="evenodd"/><path fill="#000000" fill-opacity="0.0" d="m287.6485 117.99735l1103.1182 0l0 73.13386l-1103.1182 0z" fill-rule="evenodd"/><path fill="#8e8e8e" d="m463.086 201.12491q1.75 0 3.171875 1.421875l8.3125 9.078125q-9.625 11.140625 -23.34375 17.375q-13.71875 6.234375 -33.0625 6.234375q-16.953125 0 -30.734375 -5.84375q-13.765625 -5.859375 -23.5 -16.40625q-9.734375 -10.546875 -15.09375 -25.296875q-5.34375 -14.765625 -5.34375 -32.484375q0 -17.703125 5.734375 -32.46875q5.734375 -14.765625 16.125 -25.359375q10.390625 -10.609375 24.875 -16.453125q14.484375 -5.859375 31.984375 -5.859375q17.265625 0 29.78125 5.359375q12.515625 5.359375 22.25 14.546875l-6.890625 9.734375q-0.765625 1.09375 -1.75 1.796875q-0.984375 0.703125 -2.84375 0.703125q-1.421875 0 -3.0 -1.03125q-1.578125 -1.03125 -3.765625 -2.5625q-2.1875 -1.53125 -5.140625 -3.28125q-2.953125 -1.75 -7.0 -3.28125q-4.046875 -1.53125 -9.40625 -2.5625q-5.359375 -1.046875 -12.34375 -1.046875q-12.578125 0 -23.03125 4.328125q-10.4375 4.3125 -17.984375 12.296875q-7.53125 7.96875 -11.75 19.453125q-4.203125 11.484375 -4.203125 25.6875q0 14.65625 4.203125 26.140625q4.21875 11.46875 11.484375 19.40625q7.28125 7.921875 17.21875 12.078125q9.953125 4.140625 21.4375 4.140625q6.984375 0 12.5625 -0.8125q5.578125 -0.828125 10.328125 -2.5625q4.765625 -1.75 8.859375 -4.421875q4.109375 -2.6875 8.265625 -6.40625q1.84375 -1.640625 3.59375 -1.640625zm168.2638 32.359375l-16.40625 0q-2.84375 0 -4.59375 -1.421875q-1.734375 -1.421875 -2.609375 -3.609375l-14.65625 -37.828125l-70.296875 0l-14.65625 37.828125q-0.765625 1.96875 -2.625 3.5q-1.859375 1.53125 -4.578125 1.53125l-16.40625 0l62.640625 -156.67188l21.546875 0l62.640625 156.67188zm-102.65625 -58.15625l58.484375 0l-24.59375 -63.75q-2.40625 -5.890625 -4.703125 -14.75q-1.203125 4.484375 -2.359375 8.25q-1.140625 3.765625 -2.234375 6.609375l-24.59375 63.640625zm133.3736 -98.515625q2.84375 0 4.203125 0.71875q1.375 0.703125 3.125 2.890625l90.734375 118.078125q-0.328125 -2.84375 -0.4375 -5.515625q-0.109375 -2.6875 -0.109375 -5.203125l0 -110.96875l18.59375 0l0 156.67188l-10.71875 0q-2.515625 0 -4.21875 -0.875q-1.6875 -0.875 -3.328125 -2.953125l-90.625 -117.96875q0.21875 2.734375 0.328125 5.359375q0.109375 2.625 0.109375 4.8125l0 111.625l-18.59375 0l0 -156.67188l10.9375 0l0 0zm226.85089 65.609375q-0.859375 1.1875 -1.734375 1.84375q-0.875 0.65625 -2.515625 0.65625q-1.640625 0 -3.5625 -1.359375q-1.90625 -1.359375 -4.859375 -3.0q-2.953125 -1.640625 -7.171875 -3.0q-4.203125 -1.375 -10.328125 -1.375q-8.078125 0 -14.3125 2.90625q-6.234375 2.890625 -10.453125 8.359375q-4.203125 5.453125 -6.34375 13.21875q-2.125 7.765625 -2.125 17.390625q0 10.046875 2.296875 17.875q2.296875 7.8125 6.453125 13.125q4.15625 5.296875 10.109375 8.078125q5.96875 2.78125 13.390625 2.78125q7.109375 0 11.703125 -1.6875q4.59375 -1.703125 7.65625 -3.765625q3.0625 -2.078125 5.03125 -3.765625q1.96875 -1.703125 3.9375 -1.703125q2.5 0 3.703125 1.859375l5.46875 7.09375q-7.203125 8.859375 -18.03125 12.96875q-10.828125 4.09375 -22.859375 4.09375q-10.375 0 -19.296875 -3.828125q-8.90625 -3.828125 -15.46875 -11.09375q-6.546875 -7.265625 -10.328125 -17.875q-3.765625 -10.609375 -3.765625 -24.15625q0 -12.359375 3.4375 -22.859375q3.453125 -10.5 10.0625 -18.09375q6.609375 -7.59375 16.34375 -11.859375q9.734375 -4.265625 22.296875 -4.265625q11.59375 0 20.5625 3.78125q8.96875 3.765625 15.84375 10.65625l-5.140625 7.0zm48.22174 -69.984375l0 161.04688l-19.453125 0l0 -161.04688l19.453125 0zm79.14783 48.546875q12.140625 0 21.921875 4.046875q9.78125 4.046875 16.609375 11.484375q6.84375 7.421875 10.5 17.984375q3.671875 10.546875 3.671875 23.5625q0 13.109375 -3.671875 23.609375q-3.65625 10.5 -10.5 17.9375q-6.828125 7.421875 -16.609375 11.421875q-9.78125 3.984375 -21.921875 3.984375q-12.125 0 -21.921875 -3.984375q-9.78125 -4.0 -16.671875 -11.421875q-6.875 -7.4375 -10.59375 -17.9375q-3.71875 -10.5 -3.71875 -23.609375q0 -13.015625 3.71875 -23.5625q3.71875 -10.5625 10.59375 -17.984375q6.890625 -7.4375 16.671875 -11.484375q9.796875 -4.046875 21.921875 -4.046875zm0 98.828125q16.40625 0 24.484375 -10.984375q8.09375 -10.984375 8.09375 -30.65625q0 -19.796875 -8.09375 -30.828125q-8.078125 -11.046875 -24.484375 -11.046875q-8.296875 0 -14.421875 2.84375q-6.125 2.84375 -10.234375 8.203125q-4.09375 5.34375 -6.125 13.171875q-2.015625 7.8125 -2.015625 17.65625q0 9.828125 2.015625 17.59375q2.03125 7.765625 6.125 13.078125q4.109375 5.296875 10.234375 8.140625q6.125 2.828125 14.421875 2.828125zm93.58838 -97.078125l0 70.625q0 12.578125 5.796875 19.46875q5.796875 6.875 17.484375 6.875q8.53125 0 16.078125 -4.03125q7.546875 -4.046875 13.890625 -11.265625l0 -81.671875l19.453125 0l0 110.75l-11.59375 0q-4.140625 0 -5.234375 -4.046875l-1.53125 -11.921875q-7.21875 7.984375 -16.1875 12.859375q-8.96875 4.859375 -20.546875 4.859375q-9.078125 0 -16.03125 -3.0q-6.9375 -3.015625 -11.640625 -8.484375q-4.6875 -5.46875 -7.046875 -13.21875q-2.34375 -7.765625 -2.34375 -17.171875l0 -70.625l19.453125 0zm182.68213 110.75q-4.140625 0 -5.234375 -4.046875l-1.75 -13.453125q-7.109375 8.640625 -16.25 13.84375q-9.125 5.1875 -20.921875 5.1875q-9.515625 0 -17.28125 -3.65625q-7.765625 -3.671875 -13.234375 -10.765625q-5.453125 -7.109375 -8.40625 -17.71875q-2.953125 -10.609375 -2.953125 -24.375q0 -12.25 3.28125 -22.796875q3.28125 -10.5625 9.453125 -18.3125q6.171875 -7.765625 15.03125 -12.1875q8.859375 -4.4375 20.109375 -4.4375q10.171875 0 17.390625 3.453125q7.21875 3.4375 12.90625 9.671875l0 -61.453125l19.453125 0l0 161.04688l-11.59375 0zm-37.71875 -14.21875q9.515625 0 16.671875 -4.359375q7.171875 -4.375 13.1875 -12.359375l0 -53.578125q-5.359375 -7.203125 -11.765625 -10.09375q-6.390625 -2.90625 -14.15625 -2.90625q-15.515625 0 -23.828125 11.046875q-8.3125 11.03125 -8.3125 31.484375q0 10.8125 1.859375 18.53125q1.859375 7.703125 5.46875 12.6875q3.609375 4.96875 8.859375 7.265625q5.25 2.28125 12.015625 2.28125z" fill-rule="nonzero"/></g></svg>